<svg version="1.1" id="el_xys_hwB99" xmlns="http://www.w3.org/2000/svg" xmlns:xlink="http://www.w3.org/1999/xlink" x="0px" y="0px" viewBox="0 0 500 147" style="enable-background:new 0 0 500 147.79;" xml:space="preserve" height="72" width="250"><style>@-webkit-keyframes kf_el_c25GiXmw9a_an_pTv63VvrR{65%{opacity: 0;}68.75%{opacity: 1;}93.75%{opacity: 1;}100%{opacity: 0;}0%{opacity: 0;}}@keyframes kf_el_c25GiXmw9a_an_pTv63VvrR{65%{opacity: 0;}68.75%{opacity: 1;}93.75%{opacity: 1;}100%{opacity: 0;}0%{opacity: 0;}}@-webkit-keyframes kf_el_B1LGB7JGOh_an_UXRbTTw0k{60.83%{opacity: 0;}62.92%{opacity: 1;}93.75%{opacity: 1;}100%{opacity: 0;}0%{opacity: 0;}}@keyframes kf_el_B1LGB7JGOh_an_UXRbTTw0k{60.83%{opacity: 0;}62.92%{opacity: 1;}93.75%{opacity: 1;}100%{opacity: 0;}0%{opacity: 0;}}@-webkit-keyframes kf_el_7TUushgfHo_an_VDkkxOMz4{58.75%{opacity: 0;}60.83%{opacity: 1;}93.75%{opacity: 1;}100%{opacity: 0;}0%{opacity: 0;}}@keyframes kf_el_7TUushgfHo_an_VDkkxOMz4{58.75%{opacity: 0;}60.83%{opacity: 1;}93.75%{opacity: 1;}100%{opacity: 0;}0%{opacity: 0;}}@-webkit-keyframes kf_el_Iy4ye-hOyn_an_Wi-TUdbMg{56.67%{opacity: 0;}58.75%{opacity: 1;}93.75%{opacity: 1;}100%{opacity: 0;}0%{opacity: 0;}}@keyframes kf_el_Iy4ye-hOyn_an_Wi-TUdbMg{56.67%{opacity: 0;}58.75%{opacity: 1;}93.75%{opacity: 1;}100%{opacity: 0;}0%{opacity: 0;}}@-webkit-keyframes kf_el_5qYO-eOQma_an_Zr2r2Xbfv{54.58%{opacity: 0;}56.67%{opacity: 1;}93.75%{opacity: 1;}100%{opacity: 0;}0%{opacity: 0;}}@keyframes kf_el_5qYO-eOQma_an_Zr2r2Xbfv{54.58%{opacity: 0;}56.67%{opacity: 1;}93.75%{opacity: 1;}100%{opacity: 0;}0%{opacity: 0;}}@-webkit-keyframes kf_el_XvEKeoWYB-_an_4wX8yHeo2{52.50%{opacity: 0;}54.58%{opacity: 1;}93.75%{opacity: 1;}100%{opacity: 0;}0%{opacity: 0;}}@keyframes kf_el_XvEKeoWYB-_an_4wX8yHeo2{52.50%{opacity: 0;}54.58%{opacity: 1;}93.75%{opacity: 1;}100%{opacity: 0;}0%{opacity: 0;}}@-webkit-keyframes kf_el_QJyLE1VJsUf_an_nmZl8e3vI{37.92%{opacity: 1;}44.17%{opacity: 0;}56.67%{opacity: 1;}0%{opacity: 1;}100%{opacity: 1;}}@keyframes kf_el_QJyLE1VJsUf_an_nmZl8e3vI{37.92%{opacity: 1;}44.17%{opacity: 0;}56.67%{opacity: 1;}0%{opacity: 1;}100%{opacity: 1;}}@-webkit-keyframes kf_el_XNLrbC9OTG6_an_cxgeVJvPR{37.92%{opacity: 1;}44.17%{opacity: 0;}56.67%{opacity: 1;}0%{opacity: 1;}100%{opacity: 1;}}@keyframes kf_el_XNLrbC9OTG6_an_cxgeVJvPR{37.92%{opacity: 1;}44.17%{opacity: 0;}56.67%{opacity: 1;}0%{opacity: 1;}100%{opacity: 1;}}@-webkit-keyframes kf_el_XNLrbC9OTG6_an_hY2eDCwYg{37.92%{-webkit-transform: translate(80.75999450683594px, 88.70000267028809px) rotate(0deg) translate(-80.75999450683594px, -88.70000267028809px);transform: translate(80.75999450683594px, 88.70000267028809px) rotate(0deg) translate(-80.75999450683594px, -88.70000267028809px);}44.17%{-webkit-transform: translate(80.75999450683594px, 88.70000267028809px) rotate(45deg) translate(-80.75999450683594px, -88.70000267028809px);transform: translate(80.75999450683594px, 88.70000267028809px) rotate(45deg) translate(-80.75999450683594px, -88.70000267028809px);}56.67%{-webkit-transform: translate(80.75999450683594px, 88.70000267028809px) rotate(0deg) translate(-80.75999450683594px, -88.70000267028809px);transform: translate(80.75999450683594px, 88.70000267028809px) rotate(0deg) translate(-80.75999450683594px, -88.70000267028809px);}0%{-webkit-transform: translate(80.75999450683594px, 88.70000267028809px) rotate(0deg) translate(-80.75999450683594px, -88.70000267028809px);transform: translate(80.75999450683594px, 88.70000267028809px) rotate(0deg) translate(-80.75999450683594px, -88.70000267028809px);}100%{-webkit-transform: translate(80.75999450683594px, 88.70000267028809px) rotate(0deg) translate(-80.75999450683594px, -88.70000267028809px);transform: translate(80.75999450683594px, 88.70000267028809px) rotate(0deg) translate(-80.75999450683594px, -88.70000267028809px);}}@keyframes kf_el_XNLrbC9OTG6_an_hY2eDCwYg{37.92%{-webkit-transform: translate(80.75999450683594px, 88.70000267028809px) rotate(0deg) translate(-80.75999450683594px, -88.70000267028809px);transform: translate(80.75999450683594px, 88.70000267028809px) rotate(0deg) translate(-80.75999450683594px, -88.70000267028809px);}44.17%{-webkit-transform: translate(80.75999450683594px, 88.70000267028809px) rotate(45deg) translate(-80.75999450683594px, -88.70000267028809px);transform: translate(80.75999450683594px, 88.70000267028809px) rotate(45deg) translate(-80.75999450683594px, -88.70000267028809px);}56.67%{-webkit-transform: translate(80.75999450683594px, 88.70000267028809px) rotate(0deg) translate(-80.75999450683594px, -88.70000267028809px);transform: translate(80.75999450683594px, 88.70000267028809px) rotate(0deg) translate(-80.75999450683594px, -88.70000267028809px);}0%{-webkit-transform: translate(80.75999450683594px, 88.70000267028809px) rotate(0deg) translate(-80.75999450683594px, -88.70000267028809px);transform: translate(80.75999450683594px, 88.70000267028809px) rotate(0deg) translate(-80.75999450683594px, -88.70000267028809px);}100%{-webkit-transform: translate(80.75999450683594px, 88.70000267028809px) rotate(0deg) translate(-80.75999450683594px, -88.70000267028809px);transform: translate(80.75999450683594px, 88.70000267028809px) rotate(0deg) translate(-80.75999450683594px, -88.70000267028809px);}}@-webkit-keyframes kf_el_QJyLE1VJsUf_an_YFPicnVnV{37.92%{-webkit-transform: translate(74.62000274658203px, 88.69999694824219px) rotate(0deg) translate(-74.62000274658203px, -88.69999694824219px);transform: translate(74.62000274658203px, 88.69999694824219px) rotate(0deg) translate(-74.62000274658203px, -88.69999694824219px);}44.17%{-webkit-transform: translate(74.62000274658203px, 88.69999694824219px) rotate(-45deg) translate(-74.62000274658203px, -88.69999694824219px);transform: translate(74.62000274658203px, 88.69999694824219px) rotate(-45deg) translate(-74.62000274658203px, -88.69999694824219px);}56.67%{-webkit-transform: translate(74.62000274658203px, 88.69999694824219px) rotate(0deg) translate(-74.62000274658203px, -88.69999694824219px);transform: translate(74.62000274658203px, 88.69999694824219px) rotate(0deg) translate(-74.62000274658203px, -88.69999694824219px);}0%{-webkit-transform: translate(74.62000274658203px, 88.69999694824219px) rotate(0deg) translate(-74.62000274658203px, -88.69999694824219px);transform: translate(74.62000274658203px, 88.69999694824219px) rotate(0deg) translate(-74.62000274658203px, -88.69999694824219px);}100%{-webkit-transform: translate(74.62000274658203px, 88.69999694824219px) rotate(0deg) translate(-74.62000274658203px, -88.69999694824219px);transform: translate(74.62000274658203px, 88.69999694824219px) rotate(0deg) translate(-74.62000274658203px, -88.69999694824219px);}}@keyframes kf_el_QJyLE1VJsUf_an_YFPicnVnV{37.92%{-webkit-transform: translate(74.62000274658203px, 88.69999694824219px) rotate(0deg) translate(-74.62000274658203px, -88.69999694824219px);transform: translate(74.62000274658203px, 88.69999694824219px) rotate(0deg) translate(-74.62000274658203px, -88.69999694824219px);}44.17%{-webkit-transform: translate(74.62000274658203px, 88.69999694824219px) rotate(-45deg) translate(-74.62000274658203px, -88.69999694824219px);transform: translate(74.62000274658203px, 88.69999694824219px) rotate(-45deg) translate(-74.62000274658203px, -88.69999694824219px);}56.67%{-webkit-transform: translate(74.62000274658203px, 88.69999694824219px) rotate(0deg) translate(-74.62000274658203px, -88.69999694824219px);transform: translate(74.62000274658203px, 88.69999694824219px) rotate(0deg) translate(-74.62000274658203px, -88.69999694824219px);}0%{-webkit-transform: translate(74.62000274658203px, 88.69999694824219px) rotate(0deg) translate(-74.62000274658203px, -88.69999694824219px);transform: translate(74.62000274658203px, 88.69999694824219px) rotate(0deg) translate(-74.62000274658203px, -88.69999694824219px);}100%{-webkit-transform: translate(74.62000274658203px, 88.69999694824219px) rotate(0deg) translate(-74.62000274658203px, -88.69999694824219px);transform: translate(74.62000274658203px, 88.69999694824219px) rotate(0deg) translate(-74.62000274658203px, -88.69999694824219px);}}#el_xys_hwB99 *{-webkit-animation-duration: 8s;animation-duration: 8s;-webkit-animation-iteration-count: 1;animation-iteration-count: 1;-webkit-animation-timing-function: cubic-bezier(0, 0, 1, 1);animation-timing-function: cubic-bezier(0, 0, 1, 1);}#el_QcgbPWQxor{fill: #FFFFFF;}#el_uK6tMt6qRA{fill: #FFFFFF;visibility: hidden;}#el_Iy4ye-hOyn{fill: #FFFFFF;-webkit-animation-fill-mode: backwards;animation-fill-mode: backwards;opacity: 0;-webkit-animation-name: kf_el_Iy4ye-hOyn_an_Wi-TUdbMg;animation-name: kf_el_Iy4ye-hOyn_an_Wi-TUdbMg;-webkit-animation-timing-function: cubic-bezier(0, 0, 1, 1);animation-timing-function: cubic-bezier(0, 0, 1, 1);}#el_6VQd-YpbsG{fill: #FFFFFF;}#el_E3BuLq0E0x{fill: #FFFFFF;}#el_5qYO-eOQma{fill: #FFFFFF;-webkit-animation-fill-mode: backwards;animation-fill-mode: backwards;opacity: 0;-webkit-animation-name: kf_el_5qYO-eOQma_an_Zr2r2Xbfv;animation-name: kf_el_5qYO-eOQma_an_Zr2r2Xbfv;-webkit-animation-timing-function: cubic-bezier(0, 0, 1, 1);animation-timing-function: cubic-bezier(0, 0, 1, 1);}#el_kfgrog7-EJ{fill: #FFFFFF;}#el_2Il8UGlpfL{fill: #FFFFFF;}#el_0Ml4QlSEkSP{fill: #FFFFFF;}#el_Czt8D9g3Sss{fill: #FFFFFF;}#el_8-5KzJhP3eP{fill: #FFFFFF;}#el_Foe9LrH96er{fill: #FFFFFF;}#el_Hoiao8SvqGp{fill: #FFFFFF;}#el_Vgr3UoxlDbP{fill: #FFFFFF;}#el_67EfEA-tOng{fill: #FFFFFF;}#el_a62hBGtcYFH{fill: #FFFFFF;}#el_Ys08FP6150i{fill: #FFFFFF;}#el_J22lx3n6Wt9{fill: #F9DA23;}#el_2-F1PUQ5XCo{fill: #F9DA23;}#el_4cglOzAn_9U{fill: #F9DA23;}#el_8H1O9scctWM{fill: #F9DA23;}#el_QJyLE1VJsUf_an_YFPicnVnV{-webkit-animation-fill-mode: backwards;animation-fill-mode: backwards;-webkit-transform: translate(74.62000274658203px, 88.69999694824219px) rotate(0deg) translate(-74.62000274658203px, -88.69999694824219px);transform: translate(74.62000274658203px, 88.69999694824219px) rotate(0deg) translate(-74.62000274658203px, -88.69999694824219px);-webkit-animation-name: kf_el_QJyLE1VJsUf_an_YFPicnVnV;animation-name: kf_el_QJyLE1VJsUf_an_YFPicnVnV;-webkit-animation-timing-function: cubic-bezier(0, 0, 1, 1);animation-timing-function: cubic-bezier(0, 0, 1, 1);}#el_XNLrbC9OTG6_an_0BAvOLCW6{-webkit-transform: translate(23.639999389648438px, 31.579999923706055px) scale(1, 1) translate(-23.639999389648438px, -31.579999923706055px);transform: translate(23.639999389648438px, 31.579999923706055px) scale(1, 1) translate(-23.639999389648438px, -31.579999923706055px);}#el_XNLrbC9OTG6_an_hY2eDCwYg{-webkit-animation-fill-mode: backwards;animation-fill-mode: backwards;-webkit-transform: translate(80.75999450683594px, 88.70000267028809px) rotate(0deg) translate(-80.75999450683594px, -88.70000267028809px);transform: translate(80.75999450683594px, 88.70000267028809px) rotate(0deg) translate(-80.75999450683594px, -88.70000267028809px);-webkit-animation-name: kf_el_XNLrbC9OTG6_an_hY2eDCwYg;animation-name: kf_el_XNLrbC9OTG6_an_hY2eDCwYg;-webkit-animation-timing-function: cubic-bezier(0, 0, 1, 1);animation-timing-function: cubic-bezier(0, 0, 1, 1);}#el_XNLrbC9OTG6{-webkit-animation-fill-mode: backwards;animation-fill-mode: backwards;opacity: 1;-webkit-animation-name: kf_el_XNLrbC9OTG6_an_cxgeVJvPR;animation-name: kf_el_XNLrbC9OTG6_an_cxgeVJvPR;-webkit-animation-timing-function: cubic-bezier(0, 0, 1, 1);animation-timing-function: cubic-bezier(0, 0, 1, 1);}#el_QJyLE1VJsUf{-webkit-animation-fill-mode: backwards;animation-fill-mode: backwards;opacity: 1;-webkit-animation-name: kf_el_QJyLE1VJsUf_an_nmZl8e3vI;animation-name: kf_el_QJyLE1VJsUf_an_nmZl8e3vI;-webkit-animation-timing-function: cubic-bezier(0, 0, 1, 1);animation-timing-function: cubic-bezier(0, 0, 1, 1);}#el_XvEKeoWYB-{-webkit-animation-fill-mode: backwards;animation-fill-mode: backwards;opacity: 0;-webkit-animation-name: kf_el_XvEKeoWYB-_an_4wX8yHeo2;animation-name: kf_el_XvEKeoWYB-_an_4wX8yHeo2;-webkit-animation-timing-function: cubic-bezier(0, 0, 1, 1);animation-timing-function: cubic-bezier(0, 0, 1, 1);}#el_7TUushgfHo{-webkit-animation-fill-mode: backwards;animation-fill-mode: backwards;opacity: 0;-webkit-animation-name: kf_el_7TUushgfHo_an_VDkkxOMz4;animation-name: kf_el_7TUushgfHo_an_VDkkxOMz4;-webkit-animation-timing-function: cubic-bezier(0, 0, 1, 1);animation-timing-function: cubic-bezier(0, 0, 1, 1);}#el_B1LGB7JGOh{-webkit-animation-fill-mode: backwards;animation-fill-mode: backwards;opacity: 0;-webkit-animation-name: kf_el_B1LGB7JGOh_an_UXRbTTw0k;animation-name: kf_el_B1LGB7JGOh_an_UXRbTTw0k;-webkit-animation-timing-function: cubic-bezier(0, 0, 1, 1);animation-timing-function: cubic-bezier(0, 0, 1, 1);}#el_c25GiXmw9a{-webkit-animation-fill-mode: backwards;animation-fill-mode: backwards;opacity: 0;-webkit-animation-name: kf_el_c25GiXmw9a_an_pTv63VvrR;animation-name: kf_el_c25GiXmw9a_an_pTv63VvrR;-webkit-animation-timing-function: cubic-bezier(0, 0, 1, 1);animation-timing-function: cubic-bezier(0, 0, 1, 1);}</style><g id="el_JN_eoNDalc">
                                    <path d="M271.83,107.15" id="el_QcgbPWQxor"></path>
                                    <g id="el_e8SyQOnC3I">
                                        <path d="M324.78,63.44" id="el_uK6tMt6qRA"></path>
                                        <path d="M344.23,51.86c0-7.51-5.97-13.62-13.32-13.62h-33.97c-1.1,0-1.99,0.91-1.99,2.04V86.6
			c0,1.13,0.89,2.04,1.99,2.04c1.1,0,1.99-0.91,1.99-2.04c0-11.37,8.83-20.67,19.84-21.11l22.05,22.55c0.39,0.4,0.9,0.6,1.41,0.6
			c0.51,0,1.02-0.2,1.41-0.6c0.78-0.8,0.78-2.09,0-2.88L324.4,65.48h6.51C338.26,65.48,344.23,59.37,344.23,51.86z M319.59,61.4
			c-8.64,0-16.25,4.57-20.65,11.47V42.31h31.98c5.14,0,9.33,4.28,9.33,9.54c0,5.26-4.19,9.54-9.33,9.54H319.59z" id="el_Iy4ye-hOyn"></path>
                                        <g id="el_XvEKeoWYB-">
                                            <path d="M206.38,88.64h-32.27c-1.41,0-2.56-1.01-2.56-2.27c0-1.25,1.15-2.27,2.56-2.27h32.27
				c5.63,0,10.37-3.99,10.56-8.88c0.1-2.52-0.94-4.91-2.92-6.71c-1.98-1.81-4.63-2.81-7.48-2.81h-19.81
				c-8.51,0-15.39-5.83-15.67-13.26c-0.14-3.76,1.4-7.32,4.35-10.02c2.95-2.7,6.91-4.19,11.16-4.19h20.7c1.41,0,2.56,1.01,2.56,2.27
				s-1.15,2.27-2.56,2.27h-20.7c-2.84,0-5.5,1-7.48,2.81c-1.98,1.81-3.01,4.19-2.92,6.71c0.19,4.9,4.92,8.88,10.56,8.88h19.81
				c4.24,0,8.21,1.49,11.16,4.19c2.95,2.7,4.5,6.26,4.35,10.02C221.77,82.82,214.88,88.64,206.38,88.64z" id="el_6VQd-YpbsG"></path>
                                        </g>
                                        <g id="el_B1LGB7JGOh">
                                            <g id="el_f0G1HFlH6v">
                                                <path d="M462.47,88.64h-13.93c-0.14,0-0.28-0.01-0.42-0.04c-11.8-2.3-20.36-12.7-20.36-24.74v-0.43
					c0-13.9,11.31-25.2,25.2-25.2c1.22,0,2.22,0.99,2.22,2.22s-0.99,2.22-2.22,2.22c-11.45,0-20.77,9.32-20.77,20.77v0.43
					c0,9.85,6.96,18.37,16.57,20.34h13.71c5.11,0,9.27-4.16,9.27-9.27v-9.27h-16.87c-1.22,0-2.22-0.99-2.22-2.22
					s0.99-2.22,2.22-2.22h19.09c1.22,0,2.22,0.99,2.22,2.22v11.49C476.18,82.49,470.03,88.64,462.47,88.64z" id="el_E3BuLq0E0x"></path>
                                            </g>
                                        </g>
                                        <path d="M269.97,38.24h-34.41c-1.25,0-2.27,1.01-2.27,2.27s1.01,2.27,2.27,2.27h34.41c5.07,0,9.2,4.13,9.2,9.2
			s-4.13,9.2-9.2,9.2H258.5c-13.9,0-25.2,11.31-25.2,25.2c0,1.25,1.01,2.27,2.27,2.27s2.27-1.01,2.27-2.27
			c0-11.4,9.27-20.67,20.67-20.67h11.47c7.57,0,13.73-6.16,13.73-13.73S277.55,38.24,269.97,38.24z" id="el_5qYO-eOQma"></path>
                                        <g id="el_7TUushgfHo">
                                            <path d="M411.95,42.94c-2.96-2.9-6.94-4.56-11.21-4.7c-4.47-0.14-8.7,1.37-11.91,4.25
				c-3.21,2.88-4.98,6.75-4.98,10.89v19.95c0,5.92-5.11,10.9-11.38,11.1c-0.1,0-0.2,0.02-0.3,0.03c-3.12,0.02-6.05-1.05-8.3-3.06
				c-2.32-2.07-3.6-4.85-3.6-7.82V53.04c0-1.15-1.01-2.09-2.27-2.09s-2.27,0.94-2.27,2.09v20.54c0,4.12,1.77,7.96,4.98,10.83
				c3.07,2.74,7.08,4.23,11.34,4.23c0.19,0,0.38,0,0.57-0.01c0,0,0.01,0,0.01,0c4.26-0.13,8.24-1.8,11.2-4.7
				c2.94-2.87,4.56-6.64,4.56-10.61V53.38c0-2.99,1.28-5.79,3.6-7.87c2.32-2.08,5.37-3.17,8.6-3.07c6.28,0.2,11.39,5.17,11.39,11.1
				l0,32.99c0,1.16,1.01,2.1,2.27,2.1s2.27-0.94,2.27-2.1l0-32.99C416.51,49.58,414.89,45.82,411.95,42.94z" id="el_kfgrog7-EJ"></path>
                                            <ellipse cx="358.03" cy="41.54" rx="3.37" ry="3.3" id="el_2Il8UGlpfL"></ellipse>
                                        </g>
                                    </g>
                                    <g id="el_c25GiXmw9a">
                                        <path d="M189.95,103.8c0.17,0.17,0.26,0.39,0.26,0.65v19.35c0,0.26-0.09,0.48-0.27,0.65
			c-0.18,0.17-0.4,0.26-0.67,0.26c-0.28,0-0.51-0.09-0.7-0.26c-0.18-0.17-0.27-0.39-0.27-0.65v-16.63l-7.11,10.77
			c-0.2,0.26-0.43,0.38-0.7,0.36h-0.06c-0.24,0-0.46-0.12-0.67-0.36l-7.11-10.83v16.69c0,0.26-0.09,0.48-0.26,0.65
			c-0.17,0.17-0.39,0.26-0.65,0.26c-0.26,0-0.47-0.09-0.63-0.26c-0.16-0.17-0.24-0.39-0.24-0.65v-19.35c0-0.24,0.09-0.45,0.26-0.63
			c0.17-0.18,0.39-0.27,0.65-0.27c0.14,0,0.29,0.04,0.45,0.11c0.16,0.07,0.28,0.17,0.36,0.29l7.92,11.88l7.98-11.88
			c0.22-0.3,0.49-0.43,0.82-0.39C189.57,103.54,189.77,103.63,189.95,103.8z" id="el_0Ml4QlSEkSP"></path>
                                        <path d="M229.09,123.87c0,0.26-0.09,0.47-0.27,0.63c-0.18,0.16-0.39,0.24-0.64,0.24c-0.2,0-0.38-0.06-0.53-0.17
			c-0.15-0.11-0.27-0.26-0.35-0.44l-2.27-5.53h-9.83l-2.24,5.53c-0.16,0.4-0.43,0.61-0.82,0.61c-0.28,0-0.49-0.07-0.63-0.21
			c-0.14-0.14-0.22-0.33-0.24-0.57v-0.09c0-0.12,0.01-0.21,0.03-0.27l7.98-19.53c0.16-0.4,0.46-0.6,0.91-0.6
			c0.2,0,0.38,0.06,0.53,0.17c0.15,0.11,0.27,0.26,0.35,0.44l7.95,19.44C229.07,123.66,229.09,123.79,229.09,123.87z M215.91,116.82
			h8.41l-4.23-10.34L215.91,116.82z" id="el_Czt8D9g3Sss"></path>
                                        <path d="M266.07,123.84c0,0.1-0.04,0.23-0.12,0.39c-0.08,0.14-0.19,0.25-0.33,0.33c-0.14,0.08-0.29,0.12-0.45,0.12
			c-0.2,0-0.37-0.04-0.51-0.12c-0.56-0.32-1.02-0.85-1.36-1.57c-0.34-0.73-0.51-1.88-0.51-3.48c0-1.41-0.39-2.4-1.18-2.98
			c-0.79-0.57-1.72-0.86-2.81-0.86h-6.71v8.13c0,0.26-0.08,0.48-0.24,0.65c-0.16,0.17-0.37,0.26-0.63,0.26
			c-0.28,0-0.52-0.09-0.73-0.26c-0.2-0.17-0.3-0.39-0.3-0.65v-19.35c0-0.26,0.09-0.48,0.26-0.65c0.17-0.17,0.39-0.26,0.65-0.26h8.16
			c1.15,0,2.18,0.25,3.08,0.74c0.91,0.49,1.62,1.17,2.13,2.04c0.51,0.87,0.77,1.84,0.77,2.93c0,1.29-0.34,2.42-1.01,3.4
			c-0.68,0.98-1.56,1.65-2.65,2.01c0.89,0.34,1.61,0.92,2.18,1.74c0.56,0.82,0.86,1.81,0.88,2.98c0.02,1.25,0.11,2.13,0.26,2.63
			c0.15,0.5,0.4,0.86,0.74,1.06C265.92,123.28,266.07,123.53,266.07,123.84z M259.33,114.01c0.71-0.06,1.36-0.29,1.97-0.7
			c0.6-0.4,1.09-0.95,1.45-1.63c0.36-0.69,0.54-1.47,0.54-2.36c0-1.15-0.39-2.1-1.16-2.86c-0.78-0.76-1.79-1.13-3.04-1.13h-7.02
			v8.68H259.33z" id="el_8-5KzJhP3eP"></path>
                                        <path d="M303.93,123.87c0,0.3-0.11,0.54-0.32,0.71c-0.21,0.17-0.45,0.26-0.71,0.26c-0.26,0-0.48-0.11-0.67-0.33
			l-8.44-10.61l-4.11,3.87v6.02c-0.02,0.28-0.12,0.51-0.3,0.68c-0.18,0.17-0.4,0.26-0.67,0.26c-0.28,0-0.51-0.09-0.68-0.26
			c-0.17-0.17-0.26-0.4-0.26-0.68v-19.29c0-0.28,0.09-0.51,0.27-0.68c0.18-0.17,0.41-0.26,0.7-0.26c0.28,0,0.51,0.09,0.68,0.26
			c0.17,0.17,0.26,0.4,0.26,0.68v10.98l12.22-11.55c0.18-0.2,0.4-0.3,0.67-0.3c0.24,0,0.45,0.09,0.62,0.27
			c0.17,0.18,0.26,0.38,0.26,0.6c0,0.24-0.09,0.45-0.27,0.63l-7.92,7.41l8.47,10.7C303.86,123.43,303.93,123.64,303.93,123.87z" id="el_Foe9LrH96er"></path>
                                        <path d="M338.21,123.2c0.17,0.18,0.26,0.39,0.26,0.63c0,0.26-0.09,0.47-0.26,0.64c-0.17,0.16-0.39,0.24-0.65,0.24
			h-11.1c-0.26,0-0.48-0.09-0.65-0.26c-0.17-0.17-0.26-0.39-0.26-0.65v-19.35c0-0.26,0.09-0.48,0.26-0.65
			c0.17-0.17,0.39-0.26,0.65-0.26h11.1c0.26,0,0.48,0.09,0.65,0.26c0.17,0.17,0.26,0.39,0.26,0.65c0,0.26-0.09,0.47-0.26,0.64
			c-0.17,0.16-0.39,0.24-0.65,0.24h-10.1v7.59h8.74c0.26,0,0.48,0.09,0.65,0.26c0.17,0.17,0.26,0.39,0.26,0.65
			c0,0.26-0.09,0.47-0.26,0.64c-0.17,0.16-0.39,0.24-0.65,0.24h-8.74v8.23h10.1C337.82,122.93,338.04,123.02,338.21,123.2z" id="el_Hoiao8SvqGp"></path>
                                        <path d="M374.23,103.79c0.17,0.16,0.26,0.37,0.26,0.64c0,0.26-0.09,0.47-0.26,0.62c-0.17,0.15-0.39,0.23-0.65,0.23
			h-6.26v18.54c0,0.26-0.09,0.48-0.27,0.65c-0.18,0.17-0.4,0.26-0.67,0.26c-0.28,0-0.51-0.09-0.68-0.26
			c-0.17-0.17-0.26-0.39-0.26-0.65v-18.54h-6.26c-0.26,0-0.48-0.08-0.65-0.24c-0.17-0.16-0.26-0.37-0.26-0.64
			c0-0.24,0.09-0.44,0.26-0.6c0.17-0.16,0.39-0.24,0.65-0.24h14.39C373.84,103.54,374.06,103.63,374.23,103.79z" id="el_Vgr3UoxlDbP"></path>
                                        <path d="M397.31,124.44c-0.18,0.18-0.4,0.27-0.67,0.27c-0.28,0-0.51-0.09-0.68-0.26c-0.17-0.17-0.26-0.4-0.26-0.68
			v-19.29c0-0.28,0.09-0.51,0.27-0.68c0.18-0.17,0.41-0.26,0.7-0.26c0.26,0,0.48,0.09,0.67,0.27s0.27,0.4,0.27,0.67v19.29
			C397.6,124.04,397.5,124.26,397.31,124.44z" id="el_67EfEA-tOng"></path>
                                        <path d="M436.73,103.79c0.15,0.16,0.23,0.36,0.23,0.6v19.35c0,0.3-0.09,0.54-0.27,0.71c-0.18,0.17-0.4,0.26-0.67,0.26
			c-0.14,0-0.28-0.03-0.41-0.09c-0.13-0.06-0.24-0.13-0.32-0.21l-12.97-17.48v16.96c0,0.22-0.09,0.41-0.26,0.57
			c-0.17,0.16-0.37,0.24-0.59,0.24c-0.24,0-0.44-0.08-0.6-0.24c-0.16-0.16-0.24-0.35-0.24-0.57v-19.44c0-0.28,0.09-0.5,0.26-0.67
			c0.17-0.16,0.38-0.24,0.62-0.24c0.32,0,0.56,0.11,0.73,0.33l13.03,17.57v-17.06c0-0.24,0.08-0.44,0.24-0.6
			c0.16-0.16,0.36-0.24,0.6-0.24C436.37,103.54,436.58,103.63,436.73,103.79z" id="el_a62hBGtcYFH"></path>
                                        <path d="M476.1,114.29c0.17,0.17,0.26,0.39,0.26,0.65v7.29c0,0.34-0.15,0.61-0.45,0.82
			c-0.91,0.63-1.92,1.11-3.02,1.45c-1.11,0.34-2.24,0.51-3.39,0.51c-2.06,0-3.91-0.47-5.56-1.42c-1.65-0.95-2.95-2.25-3.9-3.9
			c-0.95-1.65-1.42-3.51-1.42-5.56c0-2.06,0.47-3.91,1.42-5.56c0.95-1.65,2.25-2.95,3.9-3.9c1.65-0.95,3.51-1.42,5.56-1.42
			c1.07,0,2.1,0.13,3.1,0.39c1,0.26,1.89,0.63,2.68,1.12c0.28,0.18,0.42,0.43,0.42,0.76c0,0.26-0.09,0.48-0.26,0.67
			c-0.17,0.18-0.37,0.27-0.59,0.27c-0.2,0-0.38-0.05-0.54-0.15c-1.51-0.83-3.11-1.24-4.81-1.24c-1.71,0-3.25,0.39-4.61,1.18
			c-1.36,0.79-2.42,1.87-3.19,3.25c-0.77,1.38-1.15,2.93-1.15,4.64c0,1.71,0.38,3.26,1.15,4.64c0.77,1.38,1.83,2.46,3.19,3.25
			c1.36,0.79,2.9,1.18,4.61,1.18c0.87,0,1.74-0.12,2.62-0.36c0.88-0.24,1.66-0.57,2.34-1v-5.99h-4.78c-0.26,0-0.48-0.09-0.67-0.26
			c-0.18-0.17-0.27-0.39-0.27-0.65c0-0.26,0.09-0.48,0.27-0.65c0.18-0.17,0.4-0.26,0.67-0.26h5.78
			C475.72,114.04,475.93,114.12,476.1,114.29z" id="el_Ys08FP6150i"></path>
                                    </g>
                                    <g id="el_JXZodG7VExW">
                                        <g id="el_XP-2XfShdPe">
                                            <g id="el_7bQSDzyFtJx">
                                                <path d="M72.56,86.58L57.49,71.52c-11.14-11.14-11.14-29.26,0-40.39s29.26-11.14,40.39,0s11.14,29.26,0,40.39
					L82.82,86.58C79.99,89.41,75.39,89.41,72.56,86.58z M93.54,35.47c-8.74-8.74-22.96-8.74-31.7,0s-8.74,22.96,0,31.7L76.9,82.23
					c0.44,0.44,1.14,0.44,1.58,0l15.06-15.06C102.28,58.43,102.28,44.21,93.54,35.47z" id="el_J22lx3n6Wt9"></path>
                                            </g>
                                        </g>
                                        <g id="el_FqVjYOMZ-pp">
                                            <g id="el_XNLrbC9OTG6_an_PjHvi8aMk" data-animator-group="true" data-animator-type="1"><g id="el_XNLrbC9OTG6">
                                                    <g id="el_KZ51pfFHWWo">
                                                        <path d="M23.64,60.14c0-15.75,12.81-28.56,28.56-28.56s28.56,12.81,28.56,28.56v21.3c0,4-3.26,7.26-7.26,7.26H52.2
						C36.45,88.7,23.64,75.89,23.64,60.14z M74.62,60.14c0-12.36-10.06-22.42-22.42-22.42S29.78,47.78,29.78,60.14
						S39.84,82.56,52.2,82.56h21.3c0.62,0,1.12-0.5,1.12-1.12V60.14z" id="el_2-F1PUQ5XCo"></path>
                                                    </g>
                                                </g></g>
                                            <g id="el_QJyLE1VJsUf_an_kMA3ihsJx" data-animator-group="true" data-animator-type="1"><g id="el_QJyLE1VJsUf">
                                                    <g id="el_pn9qtBk2oh_">
                                                        <path d="M103.18,88.7h-21.3c-4,0-7.26-3.26-7.26-7.26v-21.3c0-15.75,12.81-28.56,28.56-28.56
						s28.56,12.81,28.56,28.56S118.93,88.7,103.18,88.7z M103.18,37.72c-12.36,0-22.42,10.06-22.42,22.42v21.3
						c0,0.62,0.5,1.12,1.12,1.12h21.3c12.36,0,22.42-10.06,22.42-22.42S115.54,37.72,103.18,37.72z" id="el_4cglOzAn_9U"></path>
                                                    </g>
                                                </g></g>
                                        </g>
                                        <path d="M77.26,85.17h0.86c1.46,0,2.64,1.18,2.64,2.64v34.07c0,1.46-1.18,2.64-2.64,2.64h-0.86
			c-1.46,0-2.64-1.18-2.64-2.64V87.81C74.62,86.36,75.8,85.17,77.26,85.17z" id="el_8H1O9scctWM"></path>
                                    </g>
                                </g>
</svg>